<svg width="1620" height="840" viewBox="0 0 1620 840" fill="none" xmlns="http://www.w3.org/2000/svg">
<path d="M759.646 554.115C760.623 557.022 772.065 562.998 775.526 563.805L782.244 557.749C782.042 554.518 777.603 546.847 776.137 544.425C774.304 541.397 765.142 537.763 759.646 541.397C754.149 545.03 758.424 550.482 759.646 554.115Z" fill="#FCD8E3"/>
<path d="M928.414 408.25L927.229 425.155L937.082 425.155C937.082 423.346 937.338 410.112 938.59 408.25C940.155 405.922 943.287 397.391 944.07 388.084C944.852 378.777 936.243 378 933.111 378C929.979 378 925.282 385.756 924.499 391.186C923.873 395.529 926.847 404.371 928.414 408.25Z" fill="#FCD8E3"/>
<path d="M865.205 497.796C865.205 500.241 866.034 508.39 862.721 514.094C865.759 516.267 869.761 517.354 873.736 517.354C877.712 517.354 883.674 514.416 886.16 512.243L881.481 497.796C884.296 494.833 887.816 486.771 887.816 483.127C887.816 479.052 887.816 467.643 886.16 463.569C884.503 459.494 878.705 455.418 872.08 455.418C865.454 455.418 860.485 458.679 858.829 463.569C857.172 468.458 856.345 476.608 857.172 483.127C857.836 488.342 863.273 495.079 865.205 497.796Z" fill="#FCD8E3"/>
<path d="M873.036 489.906C870.925 489.906 865.998 494.833 865.294 495.537C865.294 497.648 872.332 506.093 874.443 506.093C876.555 506.093 881.482 496.944 881.482 495.537C881.482 494.129 875.147 489.906 873.036 489.906Z" fill="#EFC9E3"/>
<path d="M849.81 731.311L844.883 715.827L853.329 705.974C854.267 709.963 856.284 722.443 856.849 726.384C857.412 730.326 852.625 731.78 849.81 731.311Z" fill="#FCD8E3"/>
<path d="M887.817 765.798L889.225 741.165L902.596 741.165C901.424 747.733 896.967 765.798 895.56 767.909C894.271 769.841 888.756 766.971 887.817 765.798Z" fill="#FCD8E3"/>
<path d="M825.881 655.3C823.066 649.106 842.069 623.16 851.219 606.738L904.707 603.922L918.08 680.636L901.892 749.61C899.781 753.129 886.408 751.721 887.113 746.092C887.676 741.587 889.928 694.478 892.039 680.636L871.629 640.52L854.737 657.411L854.737 714.42C853.33 718.643 847.699 719.347 844.884 718.643C842.068 717.94 829.4 663.043 825.881 655.3Z" fill="#3C56C6"/>
<path d="M816.028 594.772C811.524 595.335 786.937 577.647 775.208 568.733C772.393 560.287 779.665 555.828 783.654 554.656L816.028 572.955C817.906 567.559 822.222 555.219 824.474 549.025C827.289 541.284 842.069 525.096 846.291 520.873C849.108 518.058 857.554 512.662 862.479 510.316C864.59 511.019 866.703 513.836 874.444 513.836C883.593 513.836 886.409 507.501 886.409 507.501C886.409 507.501 894.152 507.501 896.966 506.094C899.781 504.686 917.376 473.014 918.784 470.903C919.488 464.568 926.526 422.34 926.526 422.34C926.526 422.34 928.637 423.748 932.157 423.748C936.379 423.748 938.49 422.34 938.49 422.34C938.49 422.34 940.601 470.903 938.49 477.238C936.379 483.571 912.449 527.911 906.82 535.653C901.189 543.395 899.781 588.439 905.412 605.329C894.855 617.295 887.443 617.295 874.444 617.295C860.368 617.295 853.096 610.492 850.515 607.442C854.737 596.885 850.515 554.656 850.515 554.656C840.897 567.794 820.533 594.209 816.028 594.772Z" fill="#6386FF"/>
<path d="M885.448 789.255C884.075 785.737 886.338 769.308 887.425 765.166L888.826 765.294L896.542 766.119L899.601 789.255C899.279 792.758 896.246 799.433 892.321 799.073C887.416 798.623 887.165 793.652 885.448 789.255Z" fill="#F5B4C8"/>
<path d="M854.212 729.384C851.725 731.048 850.444 730.759 850.115 730.407C849.031 735.37 842.425 745.142 838.765 748.88C839.247 749.845 841.094 751.819 841.884 752.665C842.874 753.721 849.018 752.189 853.188 748.542C856.522 745.625 861.744 737.283 863.937 733.477L856.861 725.465C857.014 726.079 856.699 727.722 854.212 729.384Z" fill="#F5B4C8"/>
<path d="M856.021 450.492C854.332 455.559 855.44 473.014 856.847 480.052C856.847 465.272 863.763 456.826 873.617 456.826C881.498 456.826 885.47 466.68 887.112 472.31C886.642 469.73 887.551 464.99 889.803 461.049C892.056 457.107 888.866 446.269 886.988 441.343C886.988 443.032 884.173 444.861 882.766 445.565C883.892 441.624 880.42 438.293 878.542 437.119C877.839 442.75 868.689 447.676 870.8 445.565C872.489 443.876 870.097 439.232 868.689 437.119C867.986 440.639 858.132 444.158 856.021 450.492Z" fill="#3C56C6"/>
<path d="M875.221 839.251C926.897 839.251 968.789 834.75 968.789 829.198C968.789 823.647 926.897 819.146 875.221 819.146C823.545 819.146 781.653 823.647 781.653 829.198C781.653 834.75 823.545 839.251 875.221 839.251Z" fill="#414E7C"/>
<g filter="url(#filter0_d)">
<path d="M212.404 353.975L186.838 530.91C186.14 535.748 190.465 539.808 195.248 538.805L446.87 486.078C449.871 485.448 452.122 482.948 452.429 479.897L471.369 292.445C471.862 287.572 467.35 283.699 462.608 284.923L217.61 348.166C214.863 348.877 212.81 351.166 212.404 353.975Z" fill="#8798D1"/>
<path d="M208.217 351.378L182.652 528.313C181.953 533.151 186.277 537.21 191.061 536.208L442.684 483.481C445.685 482.851 447.935 480.351 448.242 477.3L467.183 289.848C467.675 284.975 463.163 281.102 458.421 282.326L213.424 345.569C210.676 346.28 208.623 348.569 208.217 351.378Z" fill="url(#paint0_linear)"/>
<path d="M400.89 462.329L217.465 499.069C215.547 499.454 213.809 497.862 214.021 495.917C214.158 494.67 215.083 493.655 216.309 493.4L399.463 455.331C401.886 454.827 404.074 456.882 403.725 459.331C403.51 460.83 402.376 462.031 400.89 462.329Z" fill="white" fill-opacity="0.2"/>
<path d="M314.54 459.682L220.349 478.952C218.425 479.346 216.675 477.75 216.889 475.798C217.026 474.562 217.934 473.551 219.15 473.284L313.07 452.737C315.488 452.207 317.693 454.254 317.342 456.704C317.131 458.189 316.009 459.381 314.54 459.682Z" fill="white" fill-opacity="0.2"/>
<path d="M265.419 382.117L226.264 390.846C223.997 391.351 222.273 393.198 221.924 395.494L217.514 424.457C216.927 428.32 220.355 431.593 224.186 430.826L264.077 422.835C266.457 422.359 268.262 420.413 268.56 418.005L272.232 388.303C272.71 384.439 269.218 381.269 265.419 382.117Z" fill="#8798D1"/>
<path d="M223.823 396.895L220.119 423.481C219.716 426.372 222.3 428.791 225.157 428.199L262.379 420.49C264.108 420.132 265.433 418.736 265.698 416.989L269.807 389.924C270.251 386.998 267.626 384.534 264.735 385.164L227.107 393.35C225.378 393.727 224.067 395.142 223.823 396.895Z" fill="#FFCBDA"/>
<path d="M227.023 404.016L226.57 403.968L226.506 404.585L227.114 404.462L227.023 404.016ZM262.345 396.826L262.435 397.272L262.749 397.208L262.795 396.892L262.345 396.826ZM225.002 419.44L224.909 418.995L224.598 419.06L224.552 419.375L225.002 419.44ZM259.193 412.316L259.643 412.382L259.737 411.738L259.1 411.87L259.193 412.316ZM227.701 393.131L226.57 403.968L227.476 404.063L228.606 393.225L227.701 393.131ZM227.114 404.462L262.435 397.272L262.254 396.38L226.932 403.57L227.114 404.462ZM262.795 396.892L264.46 385.457L263.559 385.326L261.894 396.76L262.795 396.892ZM224.203 428.082L225.453 419.506L224.552 419.375L223.303 427.95L224.203 428.082ZM225.095 419.886L259.286 412.762L259.1 411.87L224.909 418.995L225.095 419.886ZM258.742 412.25L257.494 420.827L258.395 420.958L259.643 412.382L258.742 412.25ZM221.288 412.174L268.381 402.588L268.2 401.696L221.106 411.282L221.288 412.174Z" fill="white" fill-opacity="0.3"/>
<path d="M439.567 307.915L401.174 318.008C399.309 318.499 397.942 320.092 397.741 322.01L394.86 349.357C394.521 352.554 397.459 355.116 400.581 354.348L438.275 345.079C440.14 344.62 441.529 343.061 441.77 341.159L445.35 312.986C445.765 309.724 442.747 307.078 439.567 307.915Z" fill="url(#paint1_linear)"/>
</g>
<path d="M646.6 463.796C647.704 463.84 648.634 462.981 648.678 461.877C648.722 460.773 647.862 459.843 646.759 459.799L646.6 463.796ZM611.963 458.418C610.859 458.374 609.929 459.234 609.885 460.337C609.841 461.441 610.701 462.371 611.804 462.415L611.963 458.418ZM683.905 389.77C684.698 390.539 685.965 390.52 686.734 389.727C687.503 388.934 687.483 387.668 686.69 386.899L683.905 389.77ZM667.774 368.553C666.981 367.784 665.715 367.803 664.946 368.596C664.177 369.389 664.196 370.655 664.989 371.424L667.774 368.553ZM778.93 315.982C779.334 317.01 780.495 317.515 781.523 317.11C782.551 316.706 783.056 315.544 782.652 314.517L778.93 315.982ZM773.496 291.262C773.092 290.234 771.93 289.729 770.903 290.134C769.875 290.538 769.37 291.699 769.774 292.727L773.496 291.262ZM924.564 293.106C924.331 294.186 925.017 295.25 926.096 295.484C927.176 295.717 928.24 295.031 928.474 293.952L924.564 293.106ZM932.868 273.626C933.101 272.547 932.415 271.482 931.336 271.249C930.256 271.015 929.192 271.701 928.958 272.781L932.868 273.626ZM1016.51 335.064C1015.84 335.938 1016 337.194 1016.88 337.869C1017.75 338.543 1019.01 338.381 1019.68 337.506L1016.51 335.064ZM1035.53 316.952C1036.2 316.077 1036.04 314.821 1035.17 314.147C1034.29 313.472 1033.04 313.635 1032.36 314.509L1035.53 316.952ZM1085.54 402.899C1084.51 403.303 1084.01 404.464 1084.41 405.492C1084.82 406.52 1085.98 407.026 1087.01 406.622L1085.54 402.899ZM1114.25 395.917C1115.28 395.513 1115.78 394.352 1115.38 393.324C1114.98 392.296 1113.82 391.79 1112.79 392.194L1114.25 395.917ZM1099.27 501.521C1098.18 501.334 1097.14 502.064 1096.95 503.153C1096.77 504.241 1097.5 505.276 1098.59 505.463L1099.27 501.521ZM1126.92 510.346C1128.01 510.533 1129.04 509.803 1129.23 508.715C1129.42 507.626 1128.69 506.591 1127.6 506.404L1126.92 510.346ZM646.759 459.799L611.963 458.418L611.804 462.415L646.6 463.796L646.759 459.799ZM686.69 386.899L667.774 368.553L664.989 371.424L683.905 389.77L686.69 386.899ZM782.652 314.517L773.496 291.262L769.774 292.727L778.93 315.982L782.652 314.517ZM928.474 293.952L932.868 273.626L928.958 272.781L924.564 293.106L928.474 293.952ZM1019.68 337.506L1035.53 316.952L1032.36 314.509L1016.51 335.064L1019.68 337.506ZM1087.01 406.622L1114.25 395.917L1112.79 392.194L1085.54 402.899L1087.01 406.622ZM1098.59 505.463L1126.92 510.346L1127.6 506.404L1099.27 501.521L1098.59 505.463Z" fill="#E0DEDF"/>
<g filter="url(#filter1_d)">
<path d="M574.825 271.192C574.994 270.875 575.171 270.55 575.356 270.216C578.04 265.366 582.372 258.79 589.018 251.707C602.343 237.506 624.838 221.411 661.643 213.002C723.574 198.851 757.661 158.491 764.962 148.982L712.185 55.6812C704.424 71.7078 681.546 110.049 637.055 116.857C584.473 124.903 547.615 146.29 525.961 178.577C535.696 201.728 548.651 226.089 559.32 244.886C564.797 254.538 569.658 262.699 573.148 268.444C573.749 269.433 574.309 270.351 574.825 271.192Z" fill="#A3E54E" stroke="#81C12F" stroke-width="8"/>
<path fill-rule="evenodd" clip-rule="evenodd" d="M703.321 143.076C699.491 140.408 699.029 134.451 702.289 129.769C705.549 125.088 711.297 123.455 715.127 126.123C718.958 128.79 719.42 134.748 716.159 139.429C712.899 144.11 707.151 145.743 703.321 143.076Z" fill="#81C12F"/>
<path fill-rule="evenodd" clip-rule="evenodd" d="M572.769 198.305C569.637 194.844 570.527 188.936 574.756 185.108C578.986 181.28 584.954 180.982 588.086 184.443C591.218 187.903 590.328 193.812 586.098 197.64C581.869 201.468 575.901 201.766 572.769 198.305Z" fill="#81C12F"/>
<path fill-rule="evenodd" clip-rule="evenodd" d="M612.273 177.664C607.343 164.226 618.977 147.599 638.258 140.526C657.538 133.453 677.165 138.612 682.094 152.05C687.024 165.488 675.39 182.116 656.11 189.189C636.829 196.262 617.203 191.102 612.273 177.664Z" fill="#81C12F"/>
<path d="M661.648 160.789C662.402 162.953 661.652 164.449 659.396 165.277L656.013 166.518C653.723 167.358 652.184 166.702 651.394 164.551L651.003 163.484L648.739 164.314L648.386 163.352L650.65 162.521L650.268 161.48C649.479 159.329 650.229 157.833 652.519 156.993L654.263 156.353L655.389 159.424L653.203 160.226C653.064 160.277 652.959 160.365 652.887 160.49C652.821 160.632 652.813 160.773 652.864 160.911L653.122 161.614L657.988 159.829L657.607 158.788C656.817 156.636 657.568 155.141 659.858 154.301L663.007 153.145C665.297 152.305 666.837 152.961 667.626 155.112L668.008 156.153L669.361 155.657L669.714 156.62L668.361 157.116L668.686 158.001C669.475 160.152 668.724 161.648 666.434 162.488L665.185 162.946L664.059 159.875L665.724 159.264C665.863 159.214 665.965 159.117 666.031 158.975C666.103 158.85 666.114 158.718 666.063 158.579L665.863 158.033L661.256 159.722L661.648 160.789ZM660.655 158.083L660.903 158.759L665.509 157.07L665.261 156.393C665.21 156.254 665.114 156.152 664.971 156.086C664.835 156.037 664.698 156.039 664.559 156.09L660.994 157.397C660.855 157.448 660.75 157.536 660.677 157.661C660.612 157.804 660.604 157.944 660.655 158.083ZM654.444 163.609L658.27 162.206C658.409 162.155 658.511 162.058 658.577 161.916C658.649 161.791 658.66 161.659 658.609 161.52L658.342 160.792L653.475 162.577L653.743 163.306C653.793 163.444 653.887 163.538 654.023 163.587C654.165 163.653 654.306 163.66 654.444 163.609Z" fill="white"/>
</g>
<g filter="url(#filter2_d)">
<path fill-rule="evenodd" clip-rule="evenodd" d="M1052.07 200.053C1055.1 197.295 1064.48 192.091 1066.18 188.449C1073.33 173.08 1061.7 153.138 1046.39 136.322C1032.49 121.064 1017.34 107.949 1002.03 111.061C996.476 112.191 987.675 120.895 983.463 124.731C967.655 139.129 970.198 167.662 989.143 188.462C1008.09 209.262 1036.26 214.451 1052.07 200.053Z" fill="#FFAC55"/>
<path d="M1054.96 129.947C1064.03 139.906 1069.09 151.636 1070.06 162.459C1071.02 173.279 1067.9 183.008 1060.83 189.44C1053.77 195.872 1043.79 198.079 1033.11 196.111C1022.43 194.143 1011.22 188.006 1002.15 178.047C993.076 168.087 988.01 156.357 987.045 145.534C986.081 134.714 989.208 124.986 996.269 118.554C1003.33 112.122 1013.31 109.915 1023.99 111.883C1034.68 113.851 1045.89 119.988 1054.96 129.947Z" fill="#FFCE51" stroke="url(#paint2_linear)" stroke-width="6"/>
<path d="M1015.32 138.939L1017.52 141.626C1017.62 141.75 1017.75 141.828 1017.9 141.857C1018.07 141.874 1018.22 141.832 1018.34 141.729L1020.56 139.911C1022.5 138.329 1024.3 138.566 1025.99 140.621L1028.88 144.149C1030.56 146.205 1030.44 148.024 1028.51 149.606L1025.91 151.73C1023.98 153.313 1022.18 153.076 1020.49 151.02L1019.57 149.899L1022.68 147.353L1023.66 148.545C1023.76 148.669 1023.89 148.746 1024.04 148.776C1024.21 148.793 1024.36 148.75 1024.48 148.648L1025.86 147.519C1025.98 147.417 1026.05 147.287 1026.05 147.13C1026.07 146.96 1026.02 146.813 1025.92 146.688L1023.18 143.347C1023.08 143.223 1022.95 143.152 1022.78 143.135C1022.62 143.106 1022.48 143.142 1022.36 143.244L1020.16 145.043C1018.23 146.625 1016.42 146.388 1014.74 144.333L1010.28 138.89L1018.22 132.382L1020.27 134.882L1015.32 138.939Z" fill="#FCA72C"/>
</g>
<g filter="url(#filter3_d)">
<path fill-rule="evenodd" clip-rule="evenodd" d="M1067.14 262.452C1071.15 263.254 1080.91 267.725 1084.85 266.93C1101.46 263.574 1110.62 242.384 1115.08 220.079C1119.12 199.841 1120.69 179.863 1109.11 169.387C1104.9 165.582 1092.67 163.658 1087.09 162.542C1066.12 158.355 1044.66 177.326 1039.15 204.916C1033.64 232.505 1046.17 258.265 1067.14 262.452Z" fill="#FFAC55"/>
<path d="M1125.29 223.197C1122.65 236.407 1116.22 247.444 1108.07 254.639C1099.93 261.833 1090.25 265.086 1080.88 263.216C1071.51 261.345 1063.82 254.621 1059.07 244.853C1054.31 235.082 1052.61 222.419 1055.25 209.208C1057.88 195.998 1064.32 184.962 1072.46 177.766C1080.6 170.572 1090.29 167.319 1099.66 169.19C1109.02 171.06 1116.72 177.784 1121.47 187.553C1126.22 197.323 1127.93 209.986 1125.29 223.197Z" fill="#FFCE51" stroke="url(#paint3_linear)" stroke-width="6"/>
<path d="M1094.54 196.616L1093.68 199.981C1093.64 200.137 1093.66 200.286 1093.73 200.428C1093.81 200.575 1093.93 200.669 1094.09 200.708L1096.87 201.417C1099.29 202.033 1100.17 203.629 1099.52 206.204L1098.39 210.623C1097.73 213.199 1096.2 214.178 1093.78 213.562L1090.53 212.734C1088.11 212.118 1087.23 210.522 1087.88 207.947L1088.24 206.542L1092.13 207.533L1091.75 209.026C1091.71 209.182 1091.73 209.331 1091.8 209.473C1091.88 209.62 1092 209.713 1092.16 209.753L1093.89 210.193C1094.04 210.233 1094.18 210.206 1094.31 210.114C1094.46 210.027 1094.55 209.905 1094.59 209.749L1095.66 205.564C1095.7 205.408 1095.67 205.257 1095.59 205.11C1095.52 204.968 1095.41 204.877 1095.25 204.837L1092.5 204.136C1090.08 203.52 1089.2 201.924 1089.86 199.349L1091.59 192.53L1101.54 195.065L1100.75 198.197L1094.54 196.616Z" fill="#FCA72C"/>
</g>
<g filter="url(#filter4_d)">
<path fill-rule="evenodd" clip-rule="evenodd" d="M938.855 198.51C942.655 196.983 953.268 195.383 956.127 192.562C968.196 180.657 964.261 157.91 955.779 136.806C948.082 117.657 938.463 100.077 923.035 97.651C917.431 96.7697 906.145 101.853 900.859 103.978C881.02 111.952 873.442 139.578 883.934 165.682C894.427 191.787 919.015 206.484 938.855 198.51Z" fill="#FFAC55"/>
<path d="M966.035 133.823C971.058 146.322 971.711 159.083 968.837 169.562C965.964 180.038 959.638 188.063 950.775 191.625C941.912 195.187 931.792 193.772 922.468 188.199C913.141 182.624 904.781 172.961 899.757 160.462C894.733 147.963 894.08 135.202 896.954 124.723C899.828 114.247 906.154 106.222 915.017 102.66C923.88 99.0975 934 100.512 943.324 106.086C952.65 111.661 961.011 121.323 966.035 133.823Z" fill="#FFCE51" stroke="url(#paint4_linear)" stroke-width="6"/>
<path d="M925.75 128.412L926.875 131.698C926.927 131.85 927.02 131.967 927.154 132.049C927.308 132.124 927.461 132.136 927.613 132.084L930.328 131.154C932.69 130.346 934.301 131.199 935.162 133.713L936.638 138.028C937.499 140.542 936.749 142.203 934.387 143.012L931.215 144.098C928.853 144.906 927.242 144.053 926.381 141.539L925.912 140.167L929.712 138.867L930.21 140.324C930.263 140.476 930.356 140.593 930.49 140.675C930.644 140.75 930.797 140.762 930.949 140.709L932.635 140.132C932.787 140.08 932.891 139.981 932.947 139.834C933.023 139.68 933.034 139.527 932.982 139.375L931.583 135.289C931.531 135.137 931.428 135.023 931.275 134.948C931.141 134.866 930.997 134.851 930.845 134.904L928.159 135.823C925.797 136.632 924.186 135.779 923.325 133.264L921.046 126.607L930.761 123.281L931.807 126.339L925.75 128.412Z" fill="#FCA72C"/>
</g>
<g filter="url(#filter5_d)">
<rect x="1427.15" y="485.028" width="102.169" height="135.511" rx="17.7796" transform="rotate(19.0234 1427.15 485.028)" fill="black" fill-opacity="0.01"/>
<rect x="1407" y="212" width="210.208" height="413.579" rx="17.7796" transform="rotate(19.0234 1407 212)" fill="#45484F"/>
<rect width="186.811" height="319.18" transform="matrix(-0.945386 -0.325954 -0.325954 0.945386 1578.6 325.392)" fill="#393948"/>
<mask id="mask0" mask-type="alpha" maskUnits="userSpaceOnUse" x="1297" y="264" width="282" height="364">
<rect width="186.811" height="319.18" transform="matrix(-0.945386 -0.325954 -0.325954 0.945386 1578.6 325.392)" fill="white"/>
</mask>
<g mask="url(#mask0)">
<g opacity="0.8" filter="url(#filter6_d)">
<rect x="1361.82" y="419.185" width="166.26" height="61.3252" rx="9" transform="rotate(19.0234 1361.82 419.185)" fill="#8F8F98"/>
<rect x="1412.38" y="450.048" width="93.1233" height="6.42862" rx="3.21431" transform="rotate(19.0234 1412.38 450.048)" fill="#E3E3E3"/>
<rect opacity="0.5" x="1408.56" y="461.126" width="68.5847" height="6.42862" rx="3.21431" transform="rotate(19.0234 1408.56 461.126)" fill="url(#paint5_linear)"/>
<rect x="1371.93" y="436.681" width="28.3228" height="22.3364" rx="6.05" transform="rotate(19.0234 1371.93 436.681)" fill="#1B3554" stroke="#1B3554" stroke-width="1.1"/>
<path fill-rule="evenodd" clip-rule="evenodd" d="M1380.76 448.279L1385.31 449.847C1387.8 450.706 1388.45 452.858 1387.76 454.85C1387.07 456.873 1385.23 458.071 1382.73 457.211L1380.97 456.602L1379.89 459.724L1377.14 458.777L1380.76 448.279Z" fill="#009CCE"/>
<path fill-rule="evenodd" clip-rule="evenodd" d="M1380.12 443.448L1384.67 445.015C1387.16 445.874 1387.81 448.026 1387.13 450.018C1386.43 452.041 1384.59 453.239 1382.09 452.38L1380.33 451.77L1379.25 454.892L1376.5 453.946L1380.12 443.448Z" fill="#1369CF"/>
</g>
<g opacity="0.8" filter="url(#filter7_d)">
<rect x="1337.19" y="490.626" width="166.26" height="61.3252" rx="9" transform="rotate(19.0234 1337.19 490.626)" fill="#8F8F98"/>
<rect x="1387.75" y="521.489" width="93.1233" height="6.42862" rx="3.21431" transform="rotate(19.0234 1387.75 521.489)" fill="#E3E3E3"/>
<rect opacity="0.5" x="1383.93" y="532.567" width="68.5847" height="6.42862" rx="3.21431" transform="rotate(19.0234 1383.93 532.567)" fill="url(#paint6_linear)"/>
<rect opacity="0.15" x="1347.3" y="508.122" width="28.3228" height="22.3364" rx="6.05" transform="rotate(19.0234 1347.3 508.122)" stroke="#1B3554" stroke-width="1.1"/>
<g opacity="0.8">
<path d="M1352.72 524.685L1355.6 519.515L1357.13 520.042L1354.28 525.223L1352.72 524.685Z" fill="#3C58BF"/>
<path d="M1352.72 524.685L1355.87 519.61L1357.13 520.042L1354.28 525.223L1352.72 524.685Z" fill="#293688"/>
<path d="M1361.7 521.686C1361.43 521.459 1360.99 521.167 1360.37 520.956C1358.84 520.429 1357.48 520.814 1357.1 521.916C1356.81 522.742 1357.43 523.434 1357.95 523.92C1358.47 524.407 1358.59 524.654 1358.5 524.898C1358.38 525.266 1357.82 525.28 1357.39 525.133C1356.78 524.922 1356.48 524.714 1356.03 524.32L1355.85 524.155L1355.2 525.335C1355.52 525.615 1356.14 526 1356.84 526.243C1358.46 526.802 1359.8 526.406 1360.2 525.243C1360.42 524.601 1360.19 523.974 1359.41 523.26C1358.95 522.794 1358.67 522.525 1358.76 522.25C1358.85 522.005 1359.21 521.855 1359.82 522.066C1360.34 522.246 1360.68 522.464 1360.91 522.681L1361.04 522.795L1361.7 521.686Z" fill="#3C58BF"/>
<path d="M1361.7 521.686C1361.43 521.459 1360.99 521.167 1360.37 520.956C1358.84 520.429 1357.75 520.909 1357.38 522.01C1357.09 522.837 1357.43 523.434 1357.95 523.92C1358.47 524.407 1358.59 524.654 1358.5 524.898C1358.38 525.266 1357.82 525.28 1357.39 525.133C1356.78 524.922 1356.48 524.714 1356.03 524.32L1355.85 524.155L1355.2 525.335C1355.52 525.615 1356.14 526 1356.84 526.243C1358.46 526.802 1359.8 526.406 1360.2 525.243C1360.42 524.601 1360.19 523.974 1359.41 523.26C1358.95 522.794 1358.67 522.525 1358.76 522.25C1358.85 522.005 1359.21 521.855 1359.82 522.066C1360.34 522.246 1360.68 522.464 1360.91 522.681L1361.04 522.795L1361.7 521.686Z" fill="#293688"/>
<path fill-rule="evenodd" clip-rule="evenodd" d="M1363.18 522.764C1363.44 522.479 1363.74 522.561 1364.14 522.709L1365.43 523.189L1365.39 528.895L1363.8 528.304L1363.84 527.365L1361.72 526.578L1361.15 527.32L1359.36 526.655L1363.18 522.764ZM1363.51 524.57C1363.51 524.57 1362.55 525.649 1362.38 525.875L1362.37 525.905L1363.81 526.435C1363.83 526.116 1363.86 524.667 1363.86 524.667L1363.9 524.129C1363.73 524.297 1363.51 524.57 1363.51 524.57Z" fill="#3C58BF"/>
<path fill-rule="evenodd" clip-rule="evenodd" d="M1363.57 522.911C1363.84 522.627 1364.14 522.709 1364.54 522.857L1365.43 523.189L1365.39 528.895L1363.8 528.304L1363.84 527.365L1361.72 526.578L1361.15 527.32L1359.36 526.655L1363.57 522.911ZM1363.51 524.57C1363.51 524.57 1362.6 525.632 1362.38 525.875L1362.37 525.905L1363.81 526.435C1363.83 526.116 1363.86 524.667 1363.86 524.667L1363.9 524.129C1363.73 524.297 1363.51 524.57 1363.51 524.57Z" fill="#293688"/>
<path d="M1350.48 522.063L1350.6 521.214C1350.64 520.201 1350.1 518.885 1349.29 518.058L1348.98 523.429L1350.63 523.999L1355.01 519.345L1353.36 518.776L1350.48 522.063Z" fill="#3C58BF"/>
<path d="M1350.48 522.063L1350.6 521.214C1350.64 520.201 1350.1 518.885 1349.29 518.058L1348.98 523.429L1350.63 523.999L1355.01 519.345L1353.66 518.881L1350.48 522.063Z" fill="#293688"/>
<path d="M1347.55 516.741L1347.8 516.897C1349.6 518.031 1350.55 519.658 1350.6 521.214L1350.94 518.424C1350.98 518.025 1350.73 517.838 1350.4 517.722L1347.55 516.741V516.741Z" fill="#FFBC00"/>
<path d="M1347.55 516.741C1349.35 517.875 1350.56 519.627 1350.61 521.184L1350.83 518.832C1350.87 518.433 1350.64 518.113 1350.3 517.997L1347.55 516.741Z" fill="#F7981D"/>
<path d="M1347.55 516.741C1349.35 517.875 1350.56 519.627 1350.61 521.184L1350.65 519.864C1350.68 519.465 1350.69 519.056 1350.31 518.755L1347.55 516.741Z" fill="#ED7C00"/>
<path d="M1352.07 522.406L1351.38 521.007L1350.49 522.001L1350.64 521.193C1350.68 520.181 1350.14 518.865 1349.33 518.038L1349.02 523.408L1350.67 523.978L1352.07 522.406Z" fill="#051244"/>
<path d="M1354.28 525.224L1353.43 523.423L1352.72 524.686L1354.28 525.224Z" fill="#051244"/>
<path d="M1358.45 524.539C1358.53 524.704 1358.56 524.817 1358.49 524.929C1358.36 525.296 1357.81 525.311 1357.38 525.163C1356.77 524.952 1356.47 524.744 1356.02 524.35L1355.84 524.185L1355.19 525.366C1355.5 525.645 1356.12 526.03 1356.83 526.273C1357.81 526.61 1358.7 526.609 1359.33 526.278L1358.45 524.539Z" fill="#051244"/>
<path d="M1359.57 527.048L1361.01 527.544L1361.63 526.732L1363.59 527.407L1363.46 528.388L1364.93 528.895L1365.18 526.482L1363.95 524.074L1363.88 524.595C1363.88 524.595 1363.71 526.077 1363.66 526.405L1362.38 525.961C1362.61 525.698 1363.55 524.551 1363.55 524.551C1363.55 524.551 1363.79 524.256 1363.95 524.074" fill="#051244"/>
</g>
</g>
</g>
<g filter="url(#filter8_d)">
<rect x="1216.99" y="242.286" width="243.272" height="89.7313" rx="9" transform="rotate(18.2396 1216.99 242.286)" fill="#8F8F98"/>
<rect x="1291.59" y="286.429" width="136.258" height="9.40638" rx="4.70319" transform="rotate(18.2396 1291.59 286.429)" fill="#E3E3E3"/>
<rect x="1286.23" y="302.713" width="100.353" height="9.40638" rx="4.70319" transform="rotate(18.2396 1286.23 302.713)" fill="url(#paint7_linear)"/>
<rect x="1231.97" y="267.36" width="41.9516" height="33.1922" rx="6.05" transform="rotate(18.2396 1231.97 267.36)" fill="#1B3554" stroke="#1B3554" stroke-width="1.1"/>
<path fill-rule="evenodd" clip-rule="evenodd" d="M1248.6 299.341C1253.12 300.829 1257.98 298.39 1259.46 293.893C1260.95 289.397 1258.49 284.545 1253.97 283.056C1249.45 281.568 1244.59 284.007 1243.11 288.504C1241.63 293 1244.09 297.852 1248.6 299.341Z" fill="#FFCF63"/>
<path fill-rule="evenodd" clip-rule="evenodd" d="M1239.56 296.36C1244.08 297.849 1248.94 295.41 1250.42 290.913C1251.9 286.416 1249.44 281.564 1244.93 280.076C1240.41 278.587 1235.55 281.026 1234.06 285.523C1232.58 290.02 1235.04 294.872 1239.56 296.36Z" fill="#FF3939" style="mix-blend-mode:hard-light"/>
</g>
</g>
<defs>
<filter id="filter0_d" x="105.969" y="185.567" width="464.954" height="479.888" filterUnits="userSpaceOnUse" color-interpolation-filters="sRGB">
<feFlood flood-opacity="0" result="BackgroundImageFix"/>
<feColorMatrix in="SourceAlpha" type="matrix" values="0 0 0 0 0 0 0 0 0 0 0 0 0 0 0 0 0 0 127 0"/>
<feOffset dx="14" dy="22"/>
<feColorMatrix type="matrix" values="0 0 0 0 0 0 0 0 0 0 0 0 0 0 0 0 0 0 0.0447237 0"/>
<feBlend mode="normal" in2="BackgroundImageFix" result="effect1_dropShadow"/>
<feBlend mode="normal" in="SourceGraphic" in2="effect1_dropShadow" result="shape"/>
</filter>
<filter id="filter1_d" x="491.403" y="2.45691" width="319.986" height="347.73" filterUnits="userSpaceOnUse" color-interpolation-filters="sRGB">
<feFlood flood-opacity="0" result="BackgroundImageFix"/>
<feColorMatrix in="SourceAlpha" type="matrix" values="0 0 0 0 0 0 0 0 0 0 0 0 0 0 0 0 0 0 127 0"/>
<feOffset dx="14" dy="22"/>
<feColorMatrix type="matrix" values="0 0 0 0 0 0 0 0 0 0 0 0 0 0 0 0 0 0 0.0447237 0"/>
<feBlend mode="normal" in2="BackgroundImageFix" result="effect1_dropShadow"/>
<feBlend mode="normal" in="SourceGraphic" in2="effect1_dropShadow" result="shape"/>
</filter>
<filter id="filter2_d" x="954.817" y="90.2657" width="150.659" height="158.917" filterUnits="userSpaceOnUse" color-interpolation-filters="sRGB">
<feFlood flood-opacity="0" result="BackgroundImageFix"/>
<feColorMatrix in="SourceAlpha" type="matrix" values="0 0 0 0 0 0 0 0 0 0 0 0 0 0 0 0 0 0 127 0"/>
<feOffset dx="14" dy="22"/>
<feColorMatrix type="matrix" values="0 0 0 0 0 0 0 0 0 0 0 0 0 0 0 0 0 0 0.0447237 0"/>
<feBlend mode="normal" in2="BackgroundImageFix" result="effect1_dropShadow"/>
<feBlend mode="normal" in="SourceGraphic" in2="effect1_dropShadow" result="shape"/>
</filter>
<filter id="filter3_d" x="1028.89" y="154.927" width="123.321" height="140.812" filterUnits="userSpaceOnUse" color-interpolation-filters="sRGB">
<feFlood flood-opacity="0" result="BackgroundImageFix"/>
<feColorMatrix in="SourceAlpha" type="matrix" values="0 0 0 0 0 0 0 0 0 0 0 0 0 0 0 0 0 0 127 0"/>
<feOffset dx="14" dy="22"/>
<feColorMatrix type="matrix" values="0 0 0 0 0 0 0 0 0 0 0 0 0 0 0 0 0 0 0.0447237 0"/>
<feBlend mode="normal" in2="BackgroundImageFix" result="effect1_dropShadow"/>
<feBlend mode="normal" in="SourceGraphic" in2="effect1_dropShadow" result="shape"/>
</filter>
<filter id="filter4_d" x="864.924" y="85.4379" width="136.892" height="150.841" filterUnits="userSpaceOnUse" color-interpolation-filters="sRGB">
<feFlood flood-opacity="0" result="BackgroundImageFix"/>
<feColorMatrix in="SourceAlpha" type="matrix" values="0 0 0 0 0 0 0 0 0 0 0 0 0 0 0 0 0 0 127 0"/>
<feOffset dx="14" dy="22"/>
<feColorMatrix type="matrix" values="0 0 0 0 0 0 0 0 0 0 0 0 0 0 0 0 0 0 0.0447237 0"/>
<feBlend mode="normal" in2="BackgroundImageFix" result="effect1_dropShadow"/>
<feBlend mode="normal" in="SourceGraphic" in2="effect1_dropShadow" result="shape"/>
</filter>
<filter id="filter5_d" x="1188.91" y="212" width="430.823" height="481.51" filterUnits="userSpaceOnUse" color-interpolation-filters="sRGB">
<feFlood flood-opacity="0" result="BackgroundImageFix"/>
<feColorMatrix in="SourceAlpha" type="matrix" values="0 0 0 0 0 0 0 0 0 0 0 0 0 0 0 0 0 0 127 0"/>
<feOffset dx="14" dy="22"/>
<feColorMatrix type="matrix" values="0 0 0 0 0 0 0 0 0 0 0 0 0 0 0 0 0 0 0.0447237 0"/>
<feBlend mode="normal" in2="BackgroundImageFix" result="effect1_dropShadow"/>
<feBlend mode="normal" in="SourceGraphic" in2="effect1_dropShadow" result="shape"/>
</filter>
<filter id="filter6_d" x="1340.27" y="420.625" width="180.29" height="115.29" filterUnits="userSpaceOnUse" color-interpolation-filters="sRGB">
<feFlood flood-opacity="0" result="BackgroundImageFix"/>
<feColorMatrix in="SourceAlpha" type="matrix" values="0 0 0 0 0 0 0 0 0 0 0 0 0 0 0 0 0 0 127 0"/>
<feOffset dy="3"/>
<feGaussianBlur stdDeviation="2"/>
<feColorMatrix type="matrix" values="0 0 0 0 0.105882 0 0 0 0 0.207843 0 0 0 0 0.329412 0 0 0 0.0354393 0"/>
<feBlend mode="normal" in2="BackgroundImageFix" result="effect1_dropShadow"/>
<feBlend mode="normal" in="SourceGraphic" in2="effect1_dropShadow" result="shape"/>
</filter>
<filter id="filter7_d" x="1315.64" y="492.066" width="180.29" height="115.29" filterUnits="userSpaceOnUse" color-interpolation-filters="sRGB">
<feFlood flood-opacity="0" result="BackgroundImageFix"/>
<feColorMatrix in="SourceAlpha" type="matrix" values="0 0 0 0 0 0 0 0 0 0 0 0 0 0 0 0 0 0 127 0"/>
<feOffset dy="3"/>
<feGaussianBlur stdDeviation="2"/>
<feColorMatrix type="matrix" values="0 0 0 0 0.105882 0 0 0 0 0.207843 0 0 0 0 0.329412 0 0 0 0.0354393 0"/>
<feBlend mode="normal" in2="BackgroundImageFix" result="effect1_dropShadow"/>
<feBlend mode="normal" in="SourceGraphic" in2="effect1_dropShadow" result="shape"/>
</filter>
<filter id="filter8_d" x="1165.91" y="235.286" width="305.134" height="207.365" filterUnits="userSpaceOnUse" color-interpolation-filters="sRGB">
<feFlood flood-opacity="0" result="BackgroundImageFix"/>
<feColorMatrix in="SourceAlpha" type="matrix" values="0 0 0 0 0 0 0 0 0 0 0 0 0 0 0 0 0 0 127 0"/>
<feOffset dy="16"/>
<feGaussianBlur stdDeviation="11.5"/>
<feColorMatrix type="matrix" values="0 0 0 0 0.105882 0 0 0 0 0.207843 0 0 0 0 0.329412 0 0 0 0.176942 0"/>
<feBlend mode="normal" in2="BackgroundImageFix" result="effect1_dropShadow"/>
<feBlend mode="normal" in="SourceGraphic" in2="effect1_dropShadow" result="shape"/>
</filter>
<linearGradient id="paint0_linear" x1="271.298" y1="654.903" x2="594.838" y2="431.637" gradientUnits="userSpaceOnUse">
<stop stop-color="#6386FF"/>
<stop offset="1" stop-color="#3C56C6"/>
</linearGradient>
<linearGradient id="paint1_linear" x1="379.359" y1="339.754" x2="416.084" y2="372.594" gradientUnits="userSpaceOnUse">
<stop stop-color="white"/>
<stop offset="1" stop-color="white" stop-opacity="0.01"/>
</linearGradient>
<linearGradient id="paint2_linear" x1="973.184" y1="212.464" x2="1087.98" y2="186.925" gradientUnits="userSpaceOnUse">
<stop stop-color="#FFE4A0"/>
<stop offset="1" stop-color="#FFD855"/>
</linearGradient>
<linearGradient id="paint3_linear" x1="1010.36" y1="206.303" x2="1099" y2="283.578" gradientUnits="userSpaceOnUse">
<stop stop-color="#FFE4A0"/>
<stop offset="1" stop-color="#FFD855"/>
</linearGradient>
<linearGradient id="paint4_linear" x1="860.601" y1="182.603" x2="977.088" y2="198.744" gradientUnits="userSpaceOnUse">
<stop stop-color="#FFE4A0"/>
<stop offset="1" stop-color="#FFD855"/>
</linearGradient>
<linearGradient id="paint5_linear" x1="1378.64" y1="452.078" x2="1378.56" y2="467.198" gradientUnits="userSpaceOnUse">
<stop stop-color="#FF8888"/>
<stop offset="1" stop-color="#FF5050"/>
</linearGradient>
<linearGradient id="paint6_linear" x1="1354.01" y1="523.519" x2="1353.93" y2="538.639" gradientUnits="userSpaceOnUse">
<stop stop-color="#FF8888"/>
<stop offset="1" stop-color="#FF5050"/>
</linearGradient>
<linearGradient id="paint7_linear" x1="1317.35" y1="301.939" x2="1317.12" y2="311.143" gradientUnits="userSpaceOnUse">
<stop stop-color="#B4EC51"/>
<stop offset="1" stop-color="#429321"/>
</linearGradient>
</defs>
</svg>
